<mxfile host="app.diagrams.net" modified="2021-01-28T03:49:14.110Z" agent="5.0 (Macintosh; Intel Mac OS X 10_15_7) AppleWebKit/537.36 (KHTML, like Gecko) Chrome/88.0.4324.96 Safari/537.36" etag="lfK-aVjEUuJ7lJP7MPl-" version="14.2.6" type="github">
  <diagram id="tCk85mEaI_Bhn887kACl" name="Page-1">
    <mxGraphModel dx="946" dy="614" grid="1" gridSize="10" guides="1" tooltips="1" connect="1" arrows="1" fold="1" page="1" pageScale="1" pageWidth="827" pageHeight="1169" math="0" shadow="0">
      <root>
        <mxCell id="0" />
        <mxCell id="1" parent="0" />
        <mxCell id="5yDbfiM6vvqtPXp2DdN_-4" style="edgeStyle=orthogonalEdgeStyle;rounded=0;orthogonalLoop=1;jettySize=auto;html=1;exitX=1;exitY=0.5;exitDx=0;exitDy=0;entryX=0;entryY=0.5;entryDx=0;entryDy=0;endArrow=none;endFill=0;fillColor=#fff2cc;strokeColor=#d6b656;" edge="1" parent="1" source="5yDbfiM6vvqtPXp2DdN_-1" target="5yDbfiM6vvqtPXp2DdN_-2">
          <mxGeometry relative="1" as="geometry" />
        </mxCell>
        <mxCell id="5yDbfiM6vvqtPXp2DdN_-1" value="RenderObject&lt;br&gt;ToWidgetAdapter" style="ellipse;whiteSpace=wrap;html=1;fillColor=#fff2cc;strokeColor=#d6b656;" vertex="1" parent="1">
          <mxGeometry x="110" y="330" width="120" height="80" as="geometry" />
        </mxCell>
        <mxCell id="5yDbfiM6vvqtPXp2DdN_-5" style="edgeStyle=orthogonalEdgeStyle;rounded=0;orthogonalLoop=1;jettySize=auto;html=1;exitX=1;exitY=0.5;exitDx=0;exitDy=0;entryX=0;entryY=0.5;entryDx=0;entryDy=0;endArrow=none;endFill=0;fillColor=#fff2cc;strokeColor=#d6b656;" edge="1" parent="1" source="5yDbfiM6vvqtPXp2DdN_-2" target="5yDbfiM6vvqtPXp2DdN_-3">
          <mxGeometry relative="1" as="geometry" />
        </mxCell>
        <mxCell id="5yDbfiM6vvqtPXp2DdN_-12" value="child" style="edgeStyle=orthogonalEdgeStyle;rounded=0;orthogonalLoop=1;jettySize=auto;html=1;exitX=0.5;exitY=1;exitDx=0;exitDy=0;startArrow=none;startFill=0;endArrow=none;endFill=0;fillColor=#fff2cc;strokeColor=#d6b656;" edge="1" parent="1" source="5yDbfiM6vvqtPXp2DdN_-2" target="5yDbfiM6vvqtPXp2DdN_-10">
          <mxGeometry relative="1" as="geometry" />
        </mxCell>
        <mxCell id="5yDbfiM6vvqtPXp2DdN_-2" value="_renderViewElement" style="ellipse;whiteSpace=wrap;html=1;fillColor=#fff2cc;strokeColor=#d6b656;" vertex="1" parent="1">
          <mxGeometry x="320" y="330" width="120" height="80" as="geometry" />
        </mxCell>
        <mxCell id="5yDbfiM6vvqtPXp2DdN_-3" value="renderView" style="ellipse;whiteSpace=wrap;html=1;fillColor=#fff2cc;strokeColor=#d6b656;" vertex="1" parent="1">
          <mxGeometry x="520" y="330" width="120" height="80" as="geometry" />
        </mxCell>
        <mxCell id="5yDbfiM6vvqtPXp2DdN_-8" value="child" style="edgeStyle=orthogonalEdgeStyle;rounded=0;orthogonalLoop=1;jettySize=auto;html=1;startArrow=none;startFill=0;endArrow=none;endFill=0;fillColor=#fff2cc;strokeColor=#d6b656;" edge="1" parent="1" source="5yDbfiM6vvqtPXp2DdN_-7" target="5yDbfiM6vvqtPXp2DdN_-1">
          <mxGeometry relative="1" as="geometry">
            <Array as="points">
              <mxPoint x="170" y="470" />
              <mxPoint x="170" y="470" />
            </Array>
          </mxGeometry>
        </mxCell>
        <mxCell id="5yDbfiM6vvqtPXp2DdN_-11" style="edgeStyle=orthogonalEdgeStyle;rounded=0;orthogonalLoop=1;jettySize=auto;html=1;exitX=1;exitY=0.5;exitDx=0;exitDy=0;startArrow=none;startFill=0;endArrow=none;endFill=0;fillColor=#fff2cc;strokeColor=#d6b656;" edge="1" parent="1" source="5yDbfiM6vvqtPXp2DdN_-7" target="5yDbfiM6vvqtPXp2DdN_-10">
          <mxGeometry relative="1" as="geometry" />
        </mxCell>
        <mxCell id="5yDbfiM6vvqtPXp2DdN_-7" value="MyApp" style="ellipse;whiteSpace=wrap;html=1;fillColor=#fff2cc;strokeColor=#d6b656;" vertex="1" parent="1">
          <mxGeometry x="110" y="480" width="120" height="80" as="geometry" />
        </mxCell>
        <mxCell id="5yDbfiM6vvqtPXp2DdN_-10" value="StatefulElement" style="ellipse;whiteSpace=wrap;html=1;fillColor=#fff2cc;strokeColor=#d6b656;" vertex="1" parent="1">
          <mxGeometry x="320" y="480" width="120" height="80" as="geometry" />
        </mxCell>
      </root>
    </mxGraphModel>
  </diagram>
</mxfile>
